<svg xmlns="http://www.w3.org/2000/svg" xmlns:xlink="http://www.w3.org/1999/xlink">
  <defs>
    <style>

    </style>
  </defs><svg viewBox="0 0 32 32" fill="none" id="comment" class="sprite">
    <path d="M10 14H10.0133M16 14H16.0133M22 14H22.0133M9.33333 24V27.114C9.33333 27.8245 9.33333 28.1797 9.47897 28.3622C9.60563 28.5208 9.79769 28.6131 10.0007 28.6129C10.2342 28.6127 10.5116 28.3908 11.0663 27.9469L14.247 25.4024C14.8967 24.8826 15.2216 24.6228 15.5833 24.4379C15.9043 24.274 16.2459 24.1541 16.599 24.0817C16.9969 24 17.4129 24 18.245 24H21.6C23.8402 24 24.9603 24 25.816 23.564C26.5686 23.1805 27.1805 22.5686 27.564 21.816C28 20.9603 28 19.8402 28 17.6V10.4C28 8.15979 28 7.03968 27.564 6.18404C27.1805 5.43139 26.5686 4.81947 25.816 4.43597C24.9603 4 23.8402 4 21.6 4H10.4C8.15979 4 7.03969 4 6.18404 4.43597C5.43139 4.81947 4.81947 5.43139 4.43597 6.18404C4 7.03968 4 8.15979 4 10.4V18.6667C4 19.9066 4 20.5266 4.1363 21.0353C4.50617 22.4156 5.58436 23.4938 6.96472 23.8637C7.47339 24 8.09337 24 9.33333 24ZM10.6667 14C10.6667 14.3682 10.3682 14.6667 10 14.6667C9.63181 14.6667 9.33333 14.3682 9.33333 14C9.33333 13.6318 9.63181 13.3333 10 13.3333C10.3682 13.3333 10.6667 13.6318 10.6667 14ZM16.6667 14C16.6667 14.3682 16.3682 14.6667 16 14.6667C15.6318 14.6667 15.3333 14.3682 15.3333 14C15.3333 13.6318 15.6318 13.3333 16 13.3333C16.3682 13.3333 16.6667 13.6318 16.6667 14ZM22.6667 14C22.6667 14.3682 22.3682 14.6667 22 14.6667C21.6318 14.6667 21.3333 14.3682 21.3333 14C21.3333 13.6318 21.6318 13.3333 22 13.3333C22.3682 13.3333 22.6667 13.6318 22.6667 14Z" stroke="#303030" stroke-width="1.5" stroke-linecap="round" stroke-linejoin="round" />
  </svg><svg viewBox="0 0 24 24" fill="none" id="company" class="sprite">
    <path d="M20.5 7.27832L12 12.0005M12 12.0005L3.49997 7.27832M12 12.0005L12 21.5006M21 16.0591V7.94202C21 7.59937 21 7.42805 20.9495 7.27526C20.9049 7.14008 20.8318 7.016 20.7354 6.91131C20.6263 6.79297 20.4766 6.70977 20.177 6.54337L12.777 2.43225C12.4934 2.2747 12.3516 2.19592 12.2015 2.16503C12.0685 2.1377 11.9315 2.1377 11.7986 2.16503C11.6484 2.19592 11.5066 2.2747 11.223 2.43226L3.82297 6.54337C3.52345 6.70977 3.37369 6.79297 3.26463 6.91131C3.16816 7.016 3.09515 7.14008 3.05048 7.27526C3 7.42806 3 7.59938 3 7.94202V16.0591C3 16.4018 3 16.5731 3.05048 16.7259C3.09515 16.8611 3.16816 16.9851 3.26463 17.0898C3.37369 17.2082 3.52345 17.2914 3.82297 17.4578L11.223 21.5689C11.5066 21.7264 11.6484 21.8052 11.7986 21.8361C11.9315 21.8634 12.0685 21.8634 12.2015 21.8361C12.3516 21.8052 12.4934 21.7264 12.777 21.5689L20.177 17.4578C20.4766 17.2914 20.6263 17.2082 20.7354 17.0898C20.8318 16.9851 20.9049 16.8611 20.9495 16.7259C21 16.5731 21 16.4018 21 16.0591Z" stroke="#303030" stroke-width="1.5" stroke-linecap="round" stroke-linejoin="round" />
  </svg><svg viewBox="0 0 24 46" fill="none" id="scroll" class="sprite">
    <path d="M0 11.8286V23.6571C0 30.1629 5.4 35.4857 12 35.4857C18.6 35.4857 24 30.1629 24 23.6571V11.8286C24 5.32286 18.6 0 12 0C5.4 0 0 5.32286 0 11.8286ZM12 2.62857C17.1333 2.62857 21.3333 6.76857 21.3333 11.8286V23.6571C21.3333 28.7171 17.1333 32.8571 12 32.8571C6.86667 32.8571 2.66667 28.7171 2.66667 23.6571V11.8286C2.66667 6.76857 6.86667 2.62857 12 2.62857Z" fill="#303030" />
    <path d="M11.9993 13.8019C12.7327 13.8019 13.3327 13.2105 13.3327 12.4876V8.54475C13.3327 7.8219 12.7327 7.23047 11.9993 7.23047C11.266 7.23047 10.666 7.8219 10.666 8.54475V12.4876C10.666 13.2105 11.266 13.8019 11.9993 13.8019Z" fill="#303030" />
    <path d="M11.0673 45.6059C11.334 45.8688 11.6673 46.0002 12.0007 46.0002C12.334 46.0002 12.6673 45.8688 12.934 45.6059L16.2673 42.3202C16.8007 41.7945 16.8007 41.0059 16.2673 40.4802C15.734 39.9545 14.934 39.9545 14.4007 40.4802L12.0007 42.8459L9.60065 40.4802C9.06732 39.9545 8.26732 39.9545 7.73398 40.4802C7.20065 41.0059 7.20065 41.7945 7.73398 42.3202L11.0673 45.6059Z" fill="#303030" />
  </svg>
</svg>