<svg width="32" height="32" viewBox="0 0 32 32" fill="none" xmlns="http://www.w3.org/2000/svg">
<path d="M10 14H10.0133M16 14H16.0133M22 14H22.0133M9.33333 24V27.114C9.33333 27.8245 9.33333 28.1797 9.47897 28.3622C9.60563 28.5208 9.79769 28.6131 10.0007 28.6129C10.2342 28.6127 10.5116 28.3908 11.0663 27.9469L14.247 25.4024C14.8967 24.8826 15.2216 24.6228 15.5833 24.4379C15.9043 24.274 16.2459 24.1541 16.599 24.0817C16.9969 24 17.4129 24 18.245 24H21.6C23.8402 24 24.9603 24 25.816 23.564C26.5686 23.1805 27.1805 22.5686 27.564 21.816C28 20.9603 28 19.8402 28 17.6V10.4C28 8.15979 28 7.03968 27.564 6.18404C27.1805 5.43139 26.5686 4.81947 25.816 4.43597C24.9603 4 23.8402 4 21.6 4H10.4C8.15979 4 7.03969 4 6.18404 4.43597C5.43139 4.81947 4.81947 5.43139 4.43597 6.18404C4 7.03968 4 8.15979 4 10.4V18.6667C4 19.9066 4 20.5266 4.1363 21.0353C4.50617 22.4156 5.58436 23.4938 6.96472 23.8637C7.47339 24 8.09337 24 9.33333 24ZM10.6667 14C10.6667 14.3682 10.3682 14.6667 10 14.6667C9.63181 14.6667 9.33333 14.3682 9.33333 14C9.33333 13.6318 9.63181 13.3333 10 13.3333C10.3682 13.3333 10.6667 13.6318 10.6667 14ZM16.6667 14C16.6667 14.3682 16.3682 14.6667 16 14.6667C15.6318 14.6667 15.3333 14.3682 15.3333 14C15.3333 13.6318 15.6318 13.3333 16 13.3333C16.3682 13.3333 16.6667 13.6318 16.6667 14ZM22.6667 14C22.6667 14.3682 22.3682 14.6667 22 14.6667C21.6318 14.6667 21.3333 14.3682 21.3333 14C21.3333 13.6318 21.6318 13.3333 22 13.3333C22.3682 13.3333 22.6667 13.6318 22.6667 14Z" stroke="#303030" stroke-width="1.5" stroke-linecap="round" stroke-linejoin="round"/>
</svg>
