<svg width="24" height="46" viewBox="0 0 24 46" fill="none" xmlns="http://www.w3.org/2000/svg">
<path d="M0 11.8286V23.6571C0 30.1629 5.4 35.4857 12 35.4857C18.6 35.4857 24 30.1629 24 23.6571V11.8286C24 5.32286 18.6 0 12 0C5.4 0 0 5.32286 0 11.8286ZM12 2.62857C17.1333 2.62857 21.3333 6.76857 21.3333 11.8286V23.6571C21.3333 28.7171 17.1333 32.8571 12 32.8571C6.86667 32.8571 2.66667 28.7171 2.66667 23.6571V11.8286C2.66667 6.76857 6.86667 2.62857 12 2.62857Z" fill="#303030"/>
<path d="M11.9993 13.8019C12.7327 13.8019 13.3327 13.2105 13.3327 12.4876V8.54475C13.3327 7.8219 12.7327 7.23047 11.9993 7.23047C11.266 7.23047 10.666 7.8219 10.666 8.54475V12.4876C10.666 13.2105 11.266 13.8019 11.9993 13.8019Z" fill="#303030"/>
<path d="M11.0673 45.6059C11.334 45.8688 11.6673 46.0002 12.0007 46.0002C12.334 46.0002 12.6673 45.8688 12.934 45.6059L16.2673 42.3202C16.8007 41.7945 16.8007 41.0059 16.2673 40.4802C15.734 39.9545 14.934 39.9545 14.4007 40.4802L12.0007 42.8459L9.60065 40.4802C9.06732 39.9545 8.26732 39.9545 7.73398 40.4802C7.20065 41.0059 7.20065 41.7945 7.73398 42.3202L11.0673 45.6059Z" fill="#303030"/>
</svg>
